M48
METRIC,LZ,000.000
;FILE_FORMAT=3:3
;TYPE=PLATED
;Layer: PTH_Through
;EasyEDA v6.5.15, 2022-09-28 12:13:24
;892822c75daf4fab94dfbcc76b8c5603,1f4112cc517544ad8a54913e61995025,10
;Gerber Generator version 0.2
;Holesize 1 = 0.615 mm
T01C0.615
;Holesize 2 = 0.762 mm
T02C0.762
;Holesize 3 = 0.800 mm
T03C0.800
;Holesize 4 = 0.915 mm
T04C0.915
;Holesize 5 = 1.101 mm
T05C1.101
;Holesize 6 = 1.199 mm
T06C1.199
;Holesize 7 = 1.501 mm
T07C1.501
%
G05
G90
T01
X022733Y078867
X022733Y088392
X044323Y059055
X044323Y068580
X029464Y078867
X029464Y088392
T02
X027559Y071374
X025019Y068834
X022479Y071374
T03
X013970Y068628
X013970Y063628
T04
X034357Y062103
X026857Y062103
X037465Y087443
X037465Y079943
X050419Y068393
X050419Y060893
T05
X013970Y087197
X013970Y080697
X033961Y072644
X040461Y072644
T06
X044450Y079121
X051054Y079121
X051054Y083693
X044450Y083693
T07
X056896Y067564
X056896Y061849
X056896Y082804
X057023Y077089
M30
