G04 Layer: BottomLayer*
G04 EasyEDA v6.5.15, 2022-09-28 12:13:24*
G04 892822c75daf4fab94dfbcc76b8c5603,1f4112cc517544ad8a54913e61995025,10*
G04 Gerber Generator version 0.2*
G04 Scale: 100 percent, Rotated: No, Reflected: No *
G04 Dimensions in millimeters *
G04 leading zeros omitted , absolute positions ,4 integer and 5 decimal *
%FSLAX45Y45*%
%MOMM*%

%ADD10C,0.2540*%
%ADD11C,0.3000*%
%ADD12O,3.9999919999999998X2.999994*%
%ADD13O,2.999994X3.9999919999999998*%
%ADD14C,1.5240*%
%ADD15C,2.9997*%
%ADD16C,1.2065*%
%ADD17R,1.2065X1.2065*%
%ADD18C,1.0000*%
%ADD19C,3.0000*%
%ADD20C,1.8000*%

%LPD*%
D10*
X5041900Y6839204D02*
G01*
X5689600Y6191504D01*
X5689600Y6184900D01*
X5105400Y7912100D02*
G01*
X5105400Y7353300D01*
X5689600Y6769100D01*
X5041900Y6839204D02*
G01*
X4445000Y7436104D01*
X4445000Y7912100D01*
D11*
X4076700Y8001000D02*
G01*
X4445000Y8369300D01*
X3396114Y7264400D02*
G01*
X3517900Y7264400D01*
X4076700Y7823200D01*
X4076700Y8001000D01*
X2755900Y7137400D02*
G01*
X2882900Y7264400D01*
X3396109Y7264400D01*
X2247900Y7137400D02*
G01*
X2247900Y7188212D01*
X2946400Y7886712D01*
D10*
X2501900Y6883400D02*
G01*
X2527300Y6858000D01*
X4432300Y6858000D01*
X2501900Y6883400D02*
G01*
X1816100Y6883400D01*
X1816100Y7429512D01*
X2273300Y7886712D01*
D12*
G01*
X1397000Y8719685D03*
G01*
X1397000Y8069699D03*
D13*
G01*
X3396114Y7264400D03*
G01*
X4046100Y7264400D03*
D14*
G01*
X3435710Y6210300D03*
G01*
X2685699Y6210300D03*
G01*
X3746500Y8744310D03*
G01*
X3746500Y7994299D03*
G01*
X5041900Y6839310D03*
G01*
X5041900Y6089299D03*
D15*
G01*
X4445000Y7912100D03*
G01*
X5105400Y7912100D03*
G01*
X5105400Y8369300D03*
G01*
X4445000Y8369300D03*
D16*
G01*
X2755900Y7137400D03*
G01*
X2501900Y6883400D03*
D17*
G01*
X2247900Y7137400D03*
D18*
G01*
X2273300Y7886712D03*
G01*
X2273300Y8839212D03*
G01*
X4432300Y5905512D03*
G01*
X4432300Y6858012D03*
G01*
X2946400Y7886712D03*
G01*
X2946400Y8839212D03*
D19*
G01*
X5689587Y6756400D03*
G01*
X5689587Y6184900D03*
G01*
X5689612Y8280400D03*
G01*
X5702312Y7708900D03*
D20*
G01*
X1397010Y6862800D03*
G01*
X1397010Y6362801D03*
M02*
